# xmcd
#
# Track frame offsets: 
#        150
#        13619
#        24616
#        41580
#        55711
#        69073
#        82414
#        96767
#        111633
#        125394
#        138869
#        153572
#        167063
#        181682
#        196549
#        211906
#        226454
#        240415
#
# Disc length: 3406 seconds
#
# Revision: 1
# Processed by: cddbd v1.5.2PL0 Copyright (c) Steve Scherf et al.
# Submitted via: ExactAudioCopy v0.95b4
#
DISCID=e60d4c12
DTITLE=Billie Holiday - The 3 Divas - Billie Holiday
DYEAR=2002
DGENRE=Blues
TTITLE0=God Bless The Child
TTITLE1=I Got It Bad (And That Ain't Good)
TTITLE2=Lady Sings The Blue
TTITLE3=Good Morning Heartache
TTITLE4=My Man (Mon Homme)
TTITLE5=I Loves You Porgy
TTITLE6=Baby I Don't Cry Over You
TTITLE7=Lover Man (Oh Where Can You Be?)
TTITLE8=The Blues Are Brewin'
TTITLE9=There Is No Greater Love
TTITLE10=You Can't Lose A Broken Heart (With Louis Armnstrong)
TTITLE11=Big Stuff
TTITLE12=I'll Look Around
TTITLE13=Now Or Never
TTITLE14=Don't Explain
TTITLE15=Easy Living
TTITLE16=Crazy He Calls Me
TTITLE17=My Sweet Hunk Of Trash (With Louis Armstrong)
EXTD=Previous entry with this name was incorrect
EXTT0=
EXTT1=
EXTT2=
EXTT3=
EXTT4=
EXTT5=
EXTT6=
EXTT7=
EXTT8=
EXTT9=
EXTT10=
EXTT11=
EXTT12=
EXTT13=
EXTT14=
EXTT15=
EXTT16=
EXTT17=
PLAYORDER=
